<svg id="Layer_1" data-name="Layer 1" xmlns="http://www.w3.org/2000/svg" viewBox="0 0 128 128"><defs><style>.cls-1,.cls-2{fill:none;stroke:#333447;stroke-miterlimit:10;stroke-width:3px;}.cls-2{stroke-linecap:round;}</style></defs><title>basket</title><path class="cls-1" d="M12,68H116a8,8,0,0,0-8-8H20A8,8,0,0,0,12,68Z"/><path class="cls-1" d="M108,68l-3.49,34.89A5.68,5.68,0,0,1,98.86,108H29.14a5.68,5.68,0,0,1-5.65-5.11L20,68"/><line class="cls-2" x1="28" y1="76" x2="32" y2="100"/><line class="cls-2" x1="36" y1="76" x2="40" y2="100"/><line class="cls-2" x1="44" y1="76" x2="48" y2="100"/><line class="cls-2" x1="52" y1="76" x2="56" y2="100"/><line class="cls-2" x1="64" y1="76" x2="64" y2="100"/><line class="cls-2" x1="76" y1="76" x2="72" y2="100"/><line class="cls-2" x1="84" y1="76" x2="80" y2="100"/><line class="cls-2" x1="92" y1="76" x2="88" y2="100"/><line class="cls-2" x1="100" y1="76" x2="96" y2="100"/><path class="cls-2" d="M20,60V32h0a4,4,0,0,1,4-4H48a16.93,16.93,0,0,1,7.58,1.79l.84.42A16.93,16.93,0,0,0,64,32h0a16.93,16.93,0,0,0,7.58-1.79l.84-.42A16.93,16.93,0,0,1,80,28h24a4,4,0,0,1,4,4h0V60h-8V40h0a4,4,0,0,0-4-4H77.17a2.83,2.83,0,0,0-2,.83L74,38a2.84,2.84,0,0,1-4,0h0a2.84,2.84,0,0,0-4,0h0a2.84,2.84,0,0,1-4,0h0a2.84,2.84,0,0,0-4,0h0a2.84,2.84,0,0,1-4,0l-1.17-1.17a2.83,2.83,0,0,0-2-.83H32a4,4,0,0,0-4,4h0V60"/></svg>