<svg id="Layer_1" data-name="Layer 1" xmlns="http://www.w3.org/2000/svg" viewBox="0 0 128 128"><defs><style>.cls-1{fill:none;stroke:#333447;stroke-linecap:round;stroke-miterlimit:10;stroke-width:3px;}</style></defs><title>car</title><path class="cls-1" d="M25.35,58.4h77.84L99,41.48a4.43,4.43,0,0,0-4.29-3.35H33.87a4.42,4.42,0,0,0-4.29,3.35Z"/><path class="cls-1" d="M34.46,28H94.07a14.23,14.23,0,0,1,13.68,10.32l7.18,25.15h0A17.26,17.26,0,0,1,120,75.7V88.8H8.53V75.7A17.3,17.3,0,0,1,13.6,63.47h0l7.19-25.15A14.21,14.21,0,0,1,34.46,28Z"/><path class="cls-1" d="M13.6,88.8H28.8v7.6a7.6,7.6,0,0,1-7.6,7.6h0a7.6,7.6,0,0,1-7.6-7.6Z"/><rect class="cls-1" x="13.6" y="68.53" width="15.2" height="15.2" rx="7.6" ry="7.6"/><rect class="cls-1" x="99.73" y="68.53" width="15.2" height="15.2" rx="7.6" ry="7.6"/><path class="cls-1" d="M99.73,88.8h15.2v7.6a7.6,7.6,0,0,1-7.6,7.6h0a7.6,7.6,0,0,1-7.6-7.6Z"/><rect class="cls-1" x="33.87" y="73.6" width="60.8" height="5.07" rx="2.53" ry="2.53"/></svg>