<svg id="Layer_1" data-name="Layer 1" xmlns="http://www.w3.org/2000/svg" viewBox="0 0 128 128"><defs><style>.cls-1,.cls-2{fill:none;stroke:#333447;stroke-linejoin:round;stroke-width:3px;}.cls-2{stroke-linecap:round;}</style></defs><title>com</title><polygon class="cls-1" points="16 24 112 24 112 76 124 104 124 108 4 108 4 104 16 76 16 24"/><polygon class="cls-1" points="48 96 76 96 80 100 44 100 48 96"/><rect class="cls-1" x="24" y="32" width="80" height="40"/><polygon class="cls-2" points="24 80 104 80 112 100 88 100 80 92 44 92 36 100 16 100 24 80"/><polyline class="cls-1" points="92 60 84 52 84 56 88 52 84 52"/></svg>