<svg id="Layer_1" data-name="Layer 1" xmlns="http://www.w3.org/2000/svg" viewBox="0 0 128 128"><defs><style>.cls-1,.cls-2{fill:none;stroke:#333447;stroke-linejoin:round;stroke-width:3px;}.cls-2{stroke-linecap:round;}</style></defs><title>com</title><polygon class="cls-1" points="16 40 112 40 112 92 124 120 124 124 4 124 4 120 16 92 16 40"/><polygon class="cls-1" points="48 112 76 112 80 116 44 116 48 112"/><rect class="cls-1" x="24" y="48" width="80" height="40"/><polygon class="cls-2" points="24 96 104 96 112 116 88 116 80 108 44 108 36 116 16 116 24 96"/><polyline class="cls-1" points="92 76 84 68 84 72 88 68 84 68"/></svg>