<svg id="Layer_1" data-name="Layer 1" xmlns="http://www.w3.org/2000/svg" viewBox="0 0 128 128"><defs><style>.cls-1,.cls-2{fill:none;stroke:#333447;stroke-width:3px;}.cls-1{stroke-linejoin:round;}.cls-2{stroke-miterlimit:10;}</style></defs><title>food</title><path class="cls-1" d="M28,48V18a2,2,0,0,1,2-2h0a2,2,0,0,1,2,2V44h4V18a2,2,0,0,1,2-2h0a2,2,0,0,1,2,2V44h4V18a2,2,0,0,1,2-2h0a2,2,0,0,1,2,2V48l-4,8v50a6,6,0,0,1-6,6h0a6,6,0,0,1-6-6V56Z"/><path class="cls-2" d="M84,16l7.23,4.82a28.65,28.65,0,0,1,8,8h0A28.73,28.73,0,0,1,104,44.69V72H96v34a6,6,0,0,1-6,6h0a6,6,0,0,1-6-6V16Z"/></svg>