<svg id="Layer_1" data-name="Layer 1" xmlns="http://www.w3.org/2000/svg" viewBox="0 0 128 128"><defs><style>.cls-1{fill:#333447;}</style></defs><title>getter</title><path class="cls-1" d="M57.06,20.69a1,1,0,0,1,.15.12L72.89,35.25Q86,47.33,99.08,59.4a2.45,2.45,0,0,0,1.62.75,2.59,2.59,0,0,0,1.52-.6c3.43-2.51,7-5,10.34-7.48l3.1-2.24v0c-.56,3.23-1.15,6.46-1.74,9.69-.51,2.82-1,5.63-1.52,8.45-.07.38-.11.41-.44.52-5.33,1.71-10.78,3.5-16.21,5.31a.85.85,0,0,1-.21,0c-.06,0-.17-.08-.33-.22Q90.54,69.32,85.87,65L81,60.45l-.09-.08a1.71,1.71,0,0,0-1.2-.6,1.74,1.74,0,0,0-1.31.74c-2.26,2.85-4.6,5.74-6.85,8.52l-2.58,3.19a1.6,1.6,0,0,0-.23.36l-.11.17a1,1,0,0,0-.07.92,1,1,0,0,0,.71.58l3.14.68,6.82,1.46L83,77.2c5.1,1.1,10.37,2.23,15.57,3.31q-.89,5.2-1.75,10.41l-1.65,9.86,0,.14s0,.07,0,.11q-6.63,3.36-13.26,6.76l-1.38.7c1.59-4.48,3.43-9.65,5.34-14.93a1.9,1.9,0,0,0,0-1.63,1.83,1.83,0,0,0-1.39-.78l-4.5-.74c-7.74-1.27-15.74-2.58-23.58-4a10.06,10.06,0,0,0-1.7-.17A5.58,5.58,0,0,0,50,88.78c-4.3,5.53-8.78,11.06-13.11,16.4-2.12,2.63-4.25,5.25-6.36,7.88-5.72-5.33-11.77-10.94-19-17.64-.28-.25-.3-.34-.28-.6q.5-7.59,1-15.18l.33-5.3,0,.06,3.25,4.11C19.46,83.17,23.28,88,27,92.76a1.92,1.92,0,0,0,1.46.91,2,2,0,0,0,1.44-.89C40.91,79,52.39,64.7,65,49a1.8,1.8,0,0,0-.18-2.8c-3.32-3-6.72-6.17-10.09-9.36a2,2,0,0,0-1.33-.63A1.91,1.91,0,0,0,52,37c-3.71,4.3-7.52,8.66-11.2,12.87l-.1.11c-.06-.6-.11-1.21-.17-1.82l-.37-4c-.37-4-.73-7.92-1.12-11.88A.7.7,0,0,1,39,32a.71.71,0,0,1,.2-.16c6.44-4,12.23-7.6,17.68-11l.14-.08m0-1a1.33,1.33,0,0,0-.7.25Q47.57,25.5,38.72,31a1.24,1.24,0,0,0-.68,1.4c.51,5.3,1,10.6,1.48,15.9.12,1.3.25,2.6.37,3.94.47-.15.65-.51.88-.78,4-4.58,8-9.15,12-13.76.25-.3.45-.45.65-.45a1,1,0,0,1,.64.36q5,4.74,10.11,9.37c.6.55.55.83.07,1.43Q46.66,70.25,29.13,92.16c-.27.34-.47.51-.66.51s-.4-.18-.67-.53C23,86,18.14,79.9,13.31,73.78l-1.53-1.92a2.6,2.6,0,0,0-.23,1.2q-.68,10.85-1.37,21.7a1.57,1.57,0,0,0,.6,1.4q9.57,8.84,19.11,17.72c.26.24.45.38.64.38s.38-.14.63-.45c6.53-8.14,13.17-16.17,19.58-24.42a4.63,4.63,0,0,1,3.9-2.18,7.71,7.71,0,0,1,1.52.16c9.34,1.72,18.73,3.22,28.1,4.77.78.12.87.33.6,1.08-1.94,5.35-3.84,10.71-5.74,16.07-.12.32-.41.64-.19,1.11q8.37-4.28,16.71-8.52c.42-.22.43-.59.48-.94,1.15-6.78,2.27-13.56,3.41-20.34.11-.61.06-.9-.64-1-6.5-1.35-13-2.75-19.49-4.15l-10-2.14c.13-.21.19-.33.27-.43,3.15-3.9,6.32-7.78,9.43-11.71.22-.26.38-.36.53-.36s.39.21.61.42q7.13,6.6,14.24,13.21a1.43,1.43,0,0,0,1,.49,1.58,1.58,0,0,0,.53-.1q8.09-2.7,16.19-5.31a1.44,1.44,0,0,0,1.13-1.3c1.07-6.05,2.19-12.09,3.26-18.14a4.18,4.18,0,0,0,.22-2.4v0c-.26.21-.5.44-.77.63-4.82,3.48-9.66,6.94-14.46,10.46a1.66,1.66,0,0,1-.93.4,1.41,1.41,0,0,1-.94-.49Q78.85,39.34,57.89,20.08a1.21,1.21,0,0,0-.8-.41Z"/><path class="cls-1" d="M107.27,29.35c-.8,8.56-7.13,14.77-15.09,14.77-.32,0-.63,0-1,0-7-.43-13.31-7.15-13.73-14.67h0c2.49,0,5,0,7.47,0h7.55a1,1,0,0,0,.33-.06H99.9c2.46,0,4.91,0,7.37,0m.19-1h0q-3.77,0-7.53,0H92.52v.06H85c-2.52,0-5,0-7.56,0h0c-.79,0-.92.29-.88,1.06.45,8.09,7.08,15.15,14.67,15.62.34,0,.67,0,1,0,8.5,0,15.28-6.57,16.09-15.77.07-.74-.06-1-.81-1Z"/><path class="cls-1" d="M92.27,12h0a12.9,12.9,0,0,1,1.76.12A14.64,14.64,0,0,1,105,19.49a3.39,3.39,0,0,0,1.33,1.2l8.39,4.57H102.14q-12.23,0-24.47,0C78.74,17.83,85.16,12,92.27,12m0-1c-7.46,0-14.44,6.15-15.59,14.14-.13.93,0,1.14.9,1.14h0q12.28,0,24.55,0h16.15a1.69,1.69,0,0,0-.86-.63q-5.33-2.93-10.66-5.82a2.26,2.26,0,0,1-1-.84,15.73,15.73,0,0,0-11.65-7.84,13.38,13.38,0,0,0-1.9-.13Z"/><path class="cls-1" d="M6.47,66.62,9,69.87s0,.11,0,.17L7.59,91.81,6,90.35v-.16q.24-11.81.46-23.57m-.86-2.79a4.48,4.48,0,0,0-.09.53L5,90.17c0,.27-.07.56.17.78l3.2,3a5.16,5.16,0,0,0,.11-.56Q9.23,81.72,9.94,70.1a1.07,1.07,0,0,0-.15-.79c-1.36-1.77-2.71-3.55-4.18-5.48Z"/><path class="cls-1" d="M35.27,33.79l0,.34c.12,1.33.24,2.63.35,3.92.15,1.74.29,3.47.43,5.21q.41,5,.84,10a.78.78,0,0,1-.2.68c-.84,1-1.68,2-2.55,3.14,0-1.57,0-3.06,0-4.55,0-6.55-.1-12-.18-17.67,0-.38,0-.4.24-.51s.7-.35,1.05-.55m.86-1.64c-.85.48-1.58.92-2.34,1.29A1.33,1.33,0,0,0,33,34.86c.08,5.89.13,11.78.18,17.67,0,2.35,0,4.7,0,7.37,1.58-1.94,2.94-3.65,4.33-5.33a1.76,1.76,0,0,0,.42-1.41C37.47,48.1,37.07,43,36.65,38c-.16-1.9-.34-3.8-.52-5.82Z"/><path class="cls-1" d="M94.54,105.58l-.09.82h0l-8.35,5.85-8.79,6.15c.47-1.55.95-3.1,1.42-4.65a.65.65,0,0,0,0-.1l14.44-7.38,1.36-.7m1.23-1.75-17.49,8.94a1,1,0,0,0-.53.69c-.71,2.35-1.42,4.69-2.14,7l.14.13a1,1,0,0,0,.18,0L95,107.23a.81.81,0,0,0,.44-.63c.09-.88.21-1.76.33-2.77Z"/><path class="cls-1" d="M122.33,44.78c-.35,1.75-.67,3.42-1,5.09l-1,5.16q-1.11,5.58-2.21,11.16c0,.24-.09.31-.08.31h0l-.09,0c-.43.1-.85.22-1.27.35l.11-.67c.27-1.64.53-3.25.8-4.85l.84-4.88c.54-3.2,1.09-6.4,1.62-9.6.07-.41.16-.51.31-.61.67-.48,1.33-1,2-1.49m1.48-2.38c-1.48,1.12-2.76,2.11-4.07,3.05a1.75,1.75,0,0,0-.72,1.27c-.8,4.83-1.63,9.65-2.45,14.47-.4,2.35-.78,4.69-1.18,7.14,1-.31,1.86-.63,2.74-.82.62-.14.81-.52.93-1.12q1.6-8.18,3.24-16.32c.5-2.48,1-5,1.51-7.67Z"/><path class="cls-1" d="M116.86,47.65h0v0Zm0,0,0,.17.11-.06-.14-.11Z"/></svg>