<svg id="Layer_1" data-name="Layer 1" xmlns="http://www.w3.org/2000/svg" viewBox="0 0 128 128"><defs><style>.cls-1{fill:none;stroke:#333447;stroke-linecap:round;stroke-miterlimit:10;stroke-width:3px;}</style></defs><title>handyman</title><path class="cls-1" d="M32,12l6.54,6.54A5,5,0,0,1,40,22.07v9.26a11.28,11.28,0,0,1-3.3,8L32,44v61.94a5,5,0,0,1-1.46,3.52h0a5,5,0,0,1-5.75.93l-2-1A5,5,0,0,1,20,104.92V44l-4.7-4.7a11.28,11.28,0,0,1-3.3-8V22.07a5,5,0,0,1,1.46-3.53L20,12V28H32Z"/><path class="cls-1" d="M50.76,109.38l3,1.51a5,5,0,0,0,4.46,0l3-1.51A5,5,0,0,0,64,104.92V57.49A3.6,3.6,0,0,0,63,55l-3-3,.12-27.3v-1A13.33,13.33,0,0,0,58.84,18L56,12h0l-2.6,5.19A13.34,13.34,0,0,0,52,23.14V52l-3,3a3.6,3.6,0,0,0-1,2.54v47.43A5,5,0,0,0,50.76,109.38Z"/><path class="cls-1" d="M104,104.92V24h16V12H101A41,41,0,0,0,72,24H92v81.94a5,5,0,0,0,1.46,3.52h0a5,5,0,0,0,5.75.93l2-1A5,5,0,0,0,104,104.92Z"/></svg>