<svg id="Layer_1" data-name="Layer 1" xmlns="http://www.w3.org/2000/svg" viewBox="0 0 128 128"><defs><style>.cls-1{fill:none;stroke:#333447;stroke-linecap:round;stroke-miterlimit:10;stroke-width:3px;}</style></defs><title>handyman</title><path class="cls-1" d="M32,24l6.54,6.54A5,5,0,0,1,40,34.07v9.26a11.28,11.28,0,0,1-3.3,8L32,56v61.94a5,5,0,0,1-1.46,3.52h0a5,5,0,0,1-5.75.93l-2-1A5,5,0,0,1,20,116.92V56l-4.7-4.7a11.28,11.28,0,0,1-3.3-8V34.07a5,5,0,0,1,1.46-3.53L20,24V40H32Z"/><path class="cls-1" d="M50.76,121.38l3,1.51a5,5,0,0,0,4.46,0l3-1.51A5,5,0,0,0,64,116.92V69.49A3.6,3.6,0,0,0,63,67l-3-3,.12-27.3v-1A13.33,13.33,0,0,0,58.84,30L56,24h0l-2.6,5.19A13.34,13.34,0,0,0,52,35.14V64l-3,3a3.6,3.6,0,0,0-1,2.54v47.43A5,5,0,0,0,50.76,121.38Z"/><path class="cls-1" d="M104,116.92V36h16V24H101A41,41,0,0,0,72,36H92v81.94a5,5,0,0,0,1.46,3.52h0a5,5,0,0,0,5.75.93l2-1A5,5,0,0,0,104,116.92Z"/></svg>