<svg id="Layer_1" data-name="Layer 1" xmlns="http://www.w3.org/2000/svg" viewBox="0 0 128 128"><defs><style>.cls-1{fill:none;stroke:#333447;stroke-linecap:round;stroke-linejoin:round;stroke-width:3px;}</style></defs><title>human</title><path class="cls-1" d="M58.54,10.13l.91-1.84A7.78,7.78,0,0,1,66.4,4h0a7.78,7.78,0,0,1,6.95,4.29l.91,1.84a7.71,7.71,0,0,1,0,6.94L71.2,23.2h9.6a8.46,8.46,0,0,1,7.27,4.12l10.4,17.34a3.79,3.79,0,0,1-.57,4.64L88,59.2a3.39,3.39,0,0,1-4.8,0h0a3.39,3.39,0,0,1,0-4.8l7.2-7.2L80.8,32.8V124H71.2V80.8A4.8,4.8,0,0,0,66.4,76h0a4.8,4.8,0,0,0-4.8,4.8V124H52V32.8L42.4,47.2l7.2,7.2a3.39,3.39,0,0,1,0,4.8h0a3.39,3.39,0,0,1-4.8,0l-9.9-9.9a3.79,3.79,0,0,1-.57-4.64l10.4-17.34A8.46,8.46,0,0,1,52,23.2h9.6l-3.06-6.13A7.71,7.71,0,0,1,58.54,10.13Z"/></svg>