<svg id="Layer_1" data-name="Layer 1" xmlns="http://www.w3.org/2000/svg" viewBox="0 0 128 128"><defs><style>.cls-1{fill:none;stroke:#333447;stroke-miterlimit:10;stroke-width:3px;}</style></defs><title>misc</title><path class="cls-1" d="M63.83,92.52h0a9.4,9.4,0,0,1,9.39,9.39h0a9.39,9.39,0,0,1-9.39,9.39h0a9.39,9.39,0,0,1-9.4-9.39h0A9.4,9.4,0,0,1,63.83,92.52Z"/><path class="cls-1" d="M73.22,59.65V78.43a9.4,9.4,0,0,1-9.39,9.4h0a9.4,9.4,0,0,1-9.4-9.4V59.65h0a11.32,11.32,0,0,1,3.33-8L68.52,40.87a6.63,6.63,0,0,0,0-9.39h0a6.63,6.63,0,0,0-9.39,0l-7,7a10,10,0,0,1-14.09,0h0a10,10,0,0,1,0-14.09l8.65-8.65A26.59,26.59,0,0,1,65.44,8h0A26.56,26.56,0,0,1,92,34.56h0c0,.51,0,1,0,1.51A25.25,25.25,0,0,1,79.05,56.31Z"/></svg>