<svg id="Layer_1" data-name="Layer 1" xmlns="http://www.w3.org/2000/svg" viewBox="0 0 128 128"><defs><style>.cls-1{fill:none;stroke:#333447;stroke-miterlimit:10;stroke-width:3px;}</style></defs><title>style</title><rect class="cls-1" x="54.94" y="95.11" width="17.09" height="17.09" rx="8.55" ry="8.55"/><path class="cls-1" d="M64,61.87V86c9.44,0,16.57,8.17,16.57,17.61h0a17.1,17.1,0,0,1-17.09,17.1h0c-9.44,0-17.61-7.14-17.61-16.58h0a25.73,25.73,0,0,1,2.7-11.45L51.91,86l2.47-56.68A33,33,0,0,1,64,7.48h0V61.87"/><rect class="cls-1" x="19.25" y="71.41" width="17.09" height="17.09" rx="8.55" ry="8.55" transform="translate(-29.56 17.7) rotate(-23.49)"/><path class="cls-1" d="M64,80l36-20.56a36.48,36.48,0,0,0,15.83-18.29h0L64,61.87"/><path class="cls-1" d="M51.91,67.91c-4.38,1.91-8.79,1.88-12.44-1.21A17.78,17.78,0,0,0,21,64.28h0a17.09,17.09,0,0,0-8.86,22.48h0c3.76,8.66,13.56,13.31,22.22,9.55h0a25.56,25.56,0,0,0,9.42-7l2.11-2.52a4.43,4.43,0,0,1,6-.71h0"/></svg>